<mxfile host="Electron" agent="Mozilla/5.0 (X11; Linux x86_64) AppleWebKit/537.36 (KHTML, like Gecko) draw.io/26.0.9 Chrome/128.0.6613.186 Electron/32.3.0 Safari/537.36" version="26.0.9" pages="4">
  <diagram name="1" id="AS0sLA-gUJZffBNNmKCp">
    <mxGraphModel dx="1430" dy="849" grid="1" gridSize="10" guides="1" tooltips="1" connect="1" arrows="1" fold="1" page="1" pageScale="1" pageWidth="420" pageHeight="300" math="0" shadow="0">
      <root>
        <mxCell id="YqY_Bc5etBFNPCDuBgaJ-0" />
        <mxCell id="YqY_Bc5etBFNPCDuBgaJ-1" parent="YqY_Bc5etBFNPCDuBgaJ-0" />
        <mxCell id="AghPVLp6tl62Hx-hMCT9-1" value="I" style="text;html=1;align=center;verticalAlign=middle;whiteSpace=wrap;rounded=0;fillColor=#f5f5f5;strokeColor=#666666;fontSize=14;fontColor=#333333;" parent="YqY_Bc5etBFNPCDuBgaJ-1" vertex="1">
          <mxGeometry x="280" y="40" width="40" height="20" as="geometry" />
        </mxCell>
        <mxCell id="AghPVLp6tl62Hx-hMCT9-2" value="romans" style="text;html=1;align=center;verticalAlign=middle;whiteSpace=wrap;rounded=0;fontSize=10;" parent="YqY_Bc5etBFNPCDuBgaJ-1" vertex="1">
          <mxGeometry x="280" y="180" width="80" height="20" as="geometry" />
        </mxCell>
        <mxCell id="UF_0MwWMYEYdy6iJfK7G-25" value="V" style="text;html=1;align=center;verticalAlign=middle;whiteSpace=wrap;rounded=0;fillColor=#f5f5f5;strokeColor=#666666;fontSize=14;fontColor=#333333;" parent="YqY_Bc5etBFNPCDuBgaJ-1" vertex="1">
          <mxGeometry x="280" y="60" width="40" height="20" as="geometry" />
        </mxCell>
        <mxCell id="UF_0MwWMYEYdy6iJfK7G-26" value="X" style="text;html=1;align=center;verticalAlign=middle;whiteSpace=wrap;rounded=0;fillColor=#f5f5f5;strokeColor=#666666;fontSize=14;fontColor=#333333;" parent="YqY_Bc5etBFNPCDuBgaJ-1" vertex="1">
          <mxGeometry x="280" y="80" width="40" height="20" as="geometry" />
        </mxCell>
        <mxCell id="UF_0MwWMYEYdy6iJfK7G-27" value="L" style="text;html=1;align=center;verticalAlign=middle;whiteSpace=wrap;rounded=0;fillColor=#dae8fc;strokeColor=#6c8ebf;fontSize=14;fontColor=#333333;" parent="YqY_Bc5etBFNPCDuBgaJ-1" vertex="1">
          <mxGeometry x="280" y="100" width="40" height="20" as="geometry" />
        </mxCell>
        <mxCell id="UF_0MwWMYEYdy6iJfK7G-28" value="C" style="text;html=1;align=center;verticalAlign=middle;whiteSpace=wrap;rounded=0;fillColor=#f5f5f5;strokeColor=#666666;fontSize=14;fontColor=#333333;" parent="YqY_Bc5etBFNPCDuBgaJ-1" vertex="1">
          <mxGeometry x="280" y="120" width="40" height="20" as="geometry" />
        </mxCell>
        <mxCell id="UF_0MwWMYEYdy6iJfK7G-29" value="D" style="text;html=1;align=center;verticalAlign=middle;whiteSpace=wrap;rounded=0;fillColor=#f5f5f5;strokeColor=#666666;fontSize=14;fontColor=#333333;" parent="YqY_Bc5etBFNPCDuBgaJ-1" vertex="1">
          <mxGeometry x="280" y="140" width="40" height="20" as="geometry" />
        </mxCell>
        <mxCell id="UF_0MwWMYEYdy6iJfK7G-30" value="M" style="text;html=1;align=center;verticalAlign=middle;whiteSpace=wrap;rounded=0;fillColor=#f5f5f5;strokeColor=#666666;fontSize=14;fontColor=#333333;" parent="YqY_Bc5etBFNPCDuBgaJ-1" vertex="1">
          <mxGeometry x="280" y="160" width="40" height="20" as="geometry" />
        </mxCell>
        <mxCell id="UF_0MwWMYEYdy6iJfK7G-36" value="1" style="text;html=1;align=center;verticalAlign=middle;whiteSpace=wrap;rounded=0;fillColor=#f5f5f5;strokeColor=#666666;fontSize=14;fontColor=#333333;" parent="YqY_Bc5etBFNPCDuBgaJ-1" vertex="1">
          <mxGeometry x="320" y="40" width="40" height="20" as="geometry" />
        </mxCell>
        <mxCell id="UF_0MwWMYEYdy6iJfK7G-37" value="5" style="text;html=1;align=center;verticalAlign=middle;whiteSpace=wrap;rounded=0;fillColor=#f5f5f5;strokeColor=#666666;fontSize=14;fontColor=#333333;" parent="YqY_Bc5etBFNPCDuBgaJ-1" vertex="1">
          <mxGeometry x="320" y="60" width="40" height="20" as="geometry" />
        </mxCell>
        <mxCell id="UF_0MwWMYEYdy6iJfK7G-38" value="10" style="text;html=1;align=center;verticalAlign=middle;whiteSpace=wrap;rounded=0;fillColor=#f5f5f5;strokeColor=#666666;fontSize=14;fontColor=#333333;" parent="YqY_Bc5etBFNPCDuBgaJ-1" vertex="1">
          <mxGeometry x="320" y="80" width="40" height="20" as="geometry" />
        </mxCell>
        <mxCell id="FU1JlTu8ZqvJRYX42fr1-1" value="0 + 50" style="edgeStyle=orthogonalEdgeStyle;rounded=0;orthogonalLoop=1;jettySize=auto;html=1;exitX=1;exitY=0.5;exitDx=0;exitDy=0;entryX=1;entryY=0.5;entryDx=0;entryDy=0;fillColor=#d5e8d4;strokeColor=#82b366;" parent="YqY_Bc5etBFNPCDuBgaJ-1" source="UF_0MwWMYEYdy6iJfK7G-39" target="UF_0MwWMYEYdy6iJfK7G-61" edge="1">
          <mxGeometry relative="1" as="geometry" />
        </mxCell>
        <mxCell id="UF_0MwWMYEYdy6iJfK7G-39" value="50" style="text;html=1;align=center;verticalAlign=middle;whiteSpace=wrap;rounded=0;fillColor=#d5e8d4;strokeColor=#82b366;fontSize=14;fontColor=#333333;" parent="YqY_Bc5etBFNPCDuBgaJ-1" vertex="1">
          <mxGeometry x="320" y="100" width="40" height="20" as="geometry" />
        </mxCell>
        <mxCell id="UF_0MwWMYEYdy6iJfK7G-40" value="100" style="text;html=1;align=center;verticalAlign=middle;whiteSpace=wrap;rounded=0;fillColor=#f5f5f5;strokeColor=#666666;fontSize=14;fontColor=#333333;" parent="YqY_Bc5etBFNPCDuBgaJ-1" vertex="1">
          <mxGeometry x="320" y="120" width="40" height="20" as="geometry" />
        </mxCell>
        <mxCell id="UF_0MwWMYEYdy6iJfK7G-41" value="500" style="text;html=1;align=center;verticalAlign=middle;whiteSpace=wrap;rounded=0;fillColor=#f5f5f5;strokeColor=#666666;fontSize=14;fontColor=#333333;" parent="YqY_Bc5etBFNPCDuBgaJ-1" vertex="1">
          <mxGeometry x="320" y="140" width="40" height="20" as="geometry" />
        </mxCell>
        <mxCell id="UF_0MwWMYEYdy6iJfK7G-42" value="1000" style="text;html=1;align=center;verticalAlign=middle;whiteSpace=wrap;rounded=0;fillColor=#f5f5f5;strokeColor=#666666;fontSize=14;fontColor=#333333;" parent="YqY_Bc5etBFNPCDuBgaJ-1" vertex="1">
          <mxGeometry x="320" y="160" width="40" height="20" as="geometry" />
        </mxCell>
        <mxCell id="UF_0MwWMYEYdy6iJfK7G-59" style="edgeStyle=orthogonalEdgeStyle;rounded=0;orthogonalLoop=1;jettySize=auto;html=1;exitX=0.5;exitY=1;exitDx=0;exitDy=0;entryX=0.5;entryY=0;entryDx=0;entryDy=0;fillColor=#f5f5f5;strokeColor=#666666;" parent="YqY_Bc5etBFNPCDuBgaJ-1" source="UF_0MwWMYEYdy6iJfK7G-52" target="UF_0MwWMYEYdy6iJfK7G-57" edge="1">
          <mxGeometry relative="1" as="geometry" />
        </mxCell>
        <mxCell id="UF_0MwWMYEYdy6iJfK7G-52" value="L" style="text;html=1;align=center;verticalAlign=middle;whiteSpace=wrap;rounded=0;fillColor=#f5f5f5;strokeColor=#666666;fontSize=14;fontColor=#333333;" parent="YqY_Bc5etBFNPCDuBgaJ-1" vertex="1">
          <mxGeometry x="40" y="40" width="40" height="40" as="geometry" />
        </mxCell>
        <mxCell id="UF_0MwWMYEYdy6iJfK7G-53" value="V" style="text;html=1;align=center;verticalAlign=middle;whiteSpace=wrap;rounded=0;fillColor=#f5f5f5;strokeColor=#666666;fontSize=14;fontColor=#333333;" parent="YqY_Bc5etBFNPCDuBgaJ-1" vertex="1">
          <mxGeometry x="80" y="40" width="40" height="40" as="geometry" />
        </mxCell>
        <mxCell id="UF_0MwWMYEYdy6iJfK7G-54" value="I" style="text;html=1;align=center;verticalAlign=middle;whiteSpace=wrap;rounded=0;fillColor=#f5f5f5;strokeColor=#666666;fontSize=14;fontColor=#333333;" parent="YqY_Bc5etBFNPCDuBgaJ-1" vertex="1">
          <mxGeometry x="120" y="40" width="40" height="40" as="geometry" />
        </mxCell>
        <mxCell id="UF_0MwWMYEYdy6iJfK7G-55" value="I" style="text;html=1;align=center;verticalAlign=middle;whiteSpace=wrap;rounded=0;fillColor=#f5f5f5;strokeColor=#666666;fontSize=14;fontColor=#333333;" parent="YqY_Bc5etBFNPCDuBgaJ-1" vertex="1">
          <mxGeometry x="160" y="40" width="40" height="40" as="geometry" />
        </mxCell>
        <mxCell id="UF_0MwWMYEYdy6iJfK7G-56" value="s" style="text;html=1;align=center;verticalAlign=middle;whiteSpace=wrap;rounded=0;fontSize=10;" parent="YqY_Bc5etBFNPCDuBgaJ-1" vertex="1">
          <mxGeometry x="40" y="80" width="200" height="20" as="geometry" />
        </mxCell>
        <mxCell id="FU1JlTu8ZqvJRYX42fr1-0" style="edgeStyle=orthogonalEdgeStyle;rounded=0;orthogonalLoop=1;jettySize=auto;html=1;exitX=1;exitY=0.5;exitDx=0;exitDy=0;entryX=0;entryY=0.5;entryDx=0;entryDy=0;fillColor=#dae8fc;strokeColor=#6c8ebf;" parent="YqY_Bc5etBFNPCDuBgaJ-1" source="UF_0MwWMYEYdy6iJfK7G-57" target="UF_0MwWMYEYdy6iJfK7G-27" edge="1">
          <mxGeometry relative="1" as="geometry">
            <Array as="points">
              <mxPoint x="260" y="140" />
              <mxPoint x="260" y="110" />
            </Array>
          </mxGeometry>
        </mxCell>
        <mxCell id="UF_0MwWMYEYdy6iJfK7G-57" value="L" style="text;html=1;align=center;verticalAlign=middle;whiteSpace=wrap;rounded=0;fillColor=#dae8fc;strokeColor=#6c8ebf;fontSize=14;fontColor=#333333;" parent="YqY_Bc5etBFNPCDuBgaJ-1" vertex="1">
          <mxGeometry x="40" y="120" width="40" height="40" as="geometry" />
        </mxCell>
        <mxCell id="UF_0MwWMYEYdy6iJfK7G-58" value="c" style="text;html=1;align=center;verticalAlign=middle;whiteSpace=wrap;rounded=0;fontSize=10;" parent="YqY_Bc5etBFNPCDuBgaJ-1" vertex="1">
          <mxGeometry x="40" y="160" width="40" height="20" as="geometry" />
        </mxCell>
        <mxCell id="UF_0MwWMYEYdy6iJfK7G-61" value="50" style="text;html=1;align=center;verticalAlign=middle;whiteSpace=wrap;rounded=0;fillColor=#d5e8d4;strokeColor=#82b366;fontSize=14;fontColor=#333333;" parent="YqY_Bc5etBFNPCDuBgaJ-1" vertex="1">
          <mxGeometry x="40" y="200" width="40" height="40" as="geometry" />
        </mxCell>
        <mxCell id="UF_0MwWMYEYdy6iJfK7G-64" value="return" style="text;html=1;align=center;verticalAlign=middle;whiteSpace=wrap;rounded=0;fontSize=10;" parent="YqY_Bc5etBFNPCDuBgaJ-1" vertex="1">
          <mxGeometry x="40" y="240" width="40" height="20" as="geometry" />
        </mxCell>
        <mxCell id="FYqhyZunLH2TtJmU7_Tc-0" value="I" style="text;html=1;align=center;verticalAlign=middle;whiteSpace=wrap;rounded=0;fillColor=#f5f5f5;strokeColor=#666666;fontSize=14;fontColor=#333333;" parent="YqY_Bc5etBFNPCDuBgaJ-1" vertex="1">
          <mxGeometry x="200" y="40" width="40" height="40" as="geometry" />
        </mxCell>
      </root>
    </mxGraphModel>
  </diagram>
  <diagram name="2" id="CkjPjrMRLYGfzZjZerO0">
    <mxGraphModel dx="1430" dy="849" grid="1" gridSize="10" guides="1" tooltips="1" connect="1" arrows="1" fold="1" page="1" pageScale="1" pageWidth="380" pageHeight="300" math="0" shadow="0">
      <root>
        <mxCell id="qZHov3XKpASI76Yh6Nmb-0" />
        <mxCell id="qZHov3XKpASI76Yh6Nmb-1" parent="qZHov3XKpASI76Yh6Nmb-0" />
        <mxCell id="qZHov3XKpASI76Yh6Nmb-2" value="I" style="text;html=1;align=center;verticalAlign=middle;whiteSpace=wrap;rounded=0;fillColor=#f5f5f5;strokeColor=#666666;fontSize=14;fontColor=#333333;" parent="qZHov3XKpASI76Yh6Nmb-1" vertex="1">
          <mxGeometry x="240" y="40" width="40" height="20" as="geometry" />
        </mxCell>
        <mxCell id="qZHov3XKpASI76Yh6Nmb-3" value="romans" style="text;html=1;align=center;verticalAlign=middle;whiteSpace=wrap;rounded=0;fontSize=10;" parent="qZHov3XKpASI76Yh6Nmb-1" vertex="1">
          <mxGeometry x="240" y="180" width="80" height="20" as="geometry" />
        </mxCell>
        <mxCell id="qZHov3XKpASI76Yh6Nmb-4" value="V" style="text;html=1;align=center;verticalAlign=middle;whiteSpace=wrap;rounded=0;fillColor=#dae8fc;strokeColor=#6c8ebf;fontSize=14;fontColor=#333333;" parent="qZHov3XKpASI76Yh6Nmb-1" vertex="1">
          <mxGeometry x="240" y="60" width="40" height="20" as="geometry" />
        </mxCell>
        <mxCell id="qZHov3XKpASI76Yh6Nmb-5" value="X" style="text;html=1;align=center;verticalAlign=middle;whiteSpace=wrap;rounded=0;fillColor=#f5f5f5;strokeColor=#666666;fontSize=14;fontColor=#333333;" parent="qZHov3XKpASI76Yh6Nmb-1" vertex="1">
          <mxGeometry x="240" y="80" width="40" height="20" as="geometry" />
        </mxCell>
        <mxCell id="qZHov3XKpASI76Yh6Nmb-6" value="L" style="text;html=1;align=center;verticalAlign=middle;whiteSpace=wrap;rounded=0;fillColor=#f5f5f5;strokeColor=#666666;fontSize=14;fontColor=#333333;" parent="qZHov3XKpASI76Yh6Nmb-1" vertex="1">
          <mxGeometry x="240" y="100" width="40" height="20" as="geometry" />
        </mxCell>
        <mxCell id="qZHov3XKpASI76Yh6Nmb-7" value="C" style="text;html=1;align=center;verticalAlign=middle;whiteSpace=wrap;rounded=0;fillColor=#f5f5f5;strokeColor=#666666;fontSize=14;fontColor=#333333;" parent="qZHov3XKpASI76Yh6Nmb-1" vertex="1">
          <mxGeometry x="240" y="120" width="40" height="20" as="geometry" />
        </mxCell>
        <mxCell id="qZHov3XKpASI76Yh6Nmb-8" value="D" style="text;html=1;align=center;verticalAlign=middle;whiteSpace=wrap;rounded=0;fillColor=#f5f5f5;strokeColor=#666666;fontSize=14;fontColor=#333333;" parent="qZHov3XKpASI76Yh6Nmb-1" vertex="1">
          <mxGeometry x="240" y="140" width="40" height="20" as="geometry" />
        </mxCell>
        <mxCell id="qZHov3XKpASI76Yh6Nmb-9" value="M" style="text;html=1;align=center;verticalAlign=middle;whiteSpace=wrap;rounded=0;fillColor=#f5f5f5;strokeColor=#666666;fontSize=14;fontColor=#333333;" parent="qZHov3XKpASI76Yh6Nmb-1" vertex="1">
          <mxGeometry x="240" y="160" width="40" height="20" as="geometry" />
        </mxCell>
        <mxCell id="qZHov3XKpASI76Yh6Nmb-10" value="1" style="text;html=1;align=center;verticalAlign=middle;whiteSpace=wrap;rounded=0;fillColor=#f5f5f5;strokeColor=#666666;fontSize=14;fontColor=#333333;" parent="qZHov3XKpASI76Yh6Nmb-1" vertex="1">
          <mxGeometry x="280" y="40" width="40" height="20" as="geometry" />
        </mxCell>
        <mxCell id="qZHov3XKpASI76Yh6Nmb-11" value="5" style="text;html=1;align=center;verticalAlign=middle;whiteSpace=wrap;rounded=0;fillColor=#d5e8d4;strokeColor=#82b366;fontSize=14;fontColor=#333333;" parent="qZHov3XKpASI76Yh6Nmb-1" vertex="1">
          <mxGeometry x="280" y="60" width="40" height="20" as="geometry" />
        </mxCell>
        <mxCell id="qZHov3XKpASI76Yh6Nmb-12" value="10" style="text;html=1;align=center;verticalAlign=middle;whiteSpace=wrap;rounded=0;fillColor=#f5f5f5;strokeColor=#666666;fontSize=14;fontColor=#333333;" parent="qZHov3XKpASI76Yh6Nmb-1" vertex="1">
          <mxGeometry x="280" y="80" width="40" height="20" as="geometry" />
        </mxCell>
        <mxCell id="qZHov3XKpASI76Yh6Nmb-13" value="50 + 5" style="edgeStyle=orthogonalEdgeStyle;rounded=0;orthogonalLoop=1;jettySize=auto;html=1;exitX=1;exitY=0.5;exitDx=0;exitDy=0;entryX=1;entryY=0.5;entryDx=0;entryDy=0;fillColor=#d5e8d4;strokeColor=#82b366;" parent="qZHov3XKpASI76Yh6Nmb-1" source="qZHov3XKpASI76Yh6Nmb-11" target="qZHov3XKpASI76Yh6Nmb-27" edge="1">
          <mxGeometry relative="1" as="geometry" />
        </mxCell>
        <mxCell id="qZHov3XKpASI76Yh6Nmb-14" value="50" style="text;html=1;align=center;verticalAlign=middle;whiteSpace=wrap;rounded=0;fillColor=#f5f5f5;strokeColor=#666666;fontSize=14;fontColor=#333333;" parent="qZHov3XKpASI76Yh6Nmb-1" vertex="1">
          <mxGeometry x="280" y="100" width="40" height="20" as="geometry" />
        </mxCell>
        <mxCell id="qZHov3XKpASI76Yh6Nmb-15" value="100" style="text;html=1;align=center;verticalAlign=middle;whiteSpace=wrap;rounded=0;fillColor=#f5f5f5;strokeColor=#666666;fontSize=14;fontColor=#333333;" parent="qZHov3XKpASI76Yh6Nmb-1" vertex="1">
          <mxGeometry x="280" y="120" width="40" height="20" as="geometry" />
        </mxCell>
        <mxCell id="qZHov3XKpASI76Yh6Nmb-16" value="500" style="text;html=1;align=center;verticalAlign=middle;whiteSpace=wrap;rounded=0;fillColor=#f5f5f5;strokeColor=#666666;fontSize=14;fontColor=#333333;" parent="qZHov3XKpASI76Yh6Nmb-1" vertex="1">
          <mxGeometry x="280" y="140" width="40" height="20" as="geometry" />
        </mxCell>
        <mxCell id="qZHov3XKpASI76Yh6Nmb-17" value="1000" style="text;html=1;align=center;verticalAlign=middle;whiteSpace=wrap;rounded=0;fillColor=#f5f5f5;strokeColor=#666666;fontSize=14;fontColor=#333333;" parent="qZHov3XKpASI76Yh6Nmb-1" vertex="1">
          <mxGeometry x="280" y="160" width="40" height="20" as="geometry" />
        </mxCell>
        <mxCell id="qZHov3XKpASI76Yh6Nmb-18" style="edgeStyle=orthogonalEdgeStyle;rounded=0;orthogonalLoop=1;jettySize=auto;html=1;exitX=0.5;exitY=1;exitDx=0;exitDy=0;entryX=0.5;entryY=0;entryDx=0;entryDy=0;fillColor=#f5f5f5;strokeColor=#666666;" parent="qZHov3XKpASI76Yh6Nmb-1" source="qZHov3XKpASI76Yh6Nmb-19" target="qZHov3XKpASI76Yh6Nmb-25" edge="1">
          <mxGeometry relative="1" as="geometry" />
        </mxCell>
        <mxCell id="qZHov3XKpASI76Yh6Nmb-19" value="V" style="text;html=1;align=center;verticalAlign=middle;whiteSpace=wrap;rounded=0;fillColor=#f5f5f5;strokeColor=#666666;fontSize=14;fontColor=#333333;" parent="qZHov3XKpASI76Yh6Nmb-1" vertex="1">
          <mxGeometry x="40" y="40" width="40" height="40" as="geometry" />
        </mxCell>
        <mxCell id="qZHov3XKpASI76Yh6Nmb-20" value="I" style="text;html=1;align=center;verticalAlign=middle;whiteSpace=wrap;rounded=0;fillColor=#f5f5f5;strokeColor=#666666;fontSize=14;fontColor=#333333;" parent="qZHov3XKpASI76Yh6Nmb-1" vertex="1">
          <mxGeometry x="80" y="40" width="40" height="40" as="geometry" />
        </mxCell>
        <mxCell id="qZHov3XKpASI76Yh6Nmb-21" value="I" style="text;html=1;align=center;verticalAlign=middle;whiteSpace=wrap;rounded=0;fillColor=#f5f5f5;strokeColor=#666666;fontSize=14;fontColor=#333333;" parent="qZHov3XKpASI76Yh6Nmb-1" vertex="1">
          <mxGeometry x="120" y="40" width="40" height="40" as="geometry" />
        </mxCell>
        <mxCell id="qZHov3XKpASI76Yh6Nmb-22" value="I" style="text;html=1;align=center;verticalAlign=middle;whiteSpace=wrap;rounded=0;fillColor=#f5f5f5;strokeColor=#666666;fontSize=14;fontColor=#333333;" parent="qZHov3XKpASI76Yh6Nmb-1" vertex="1">
          <mxGeometry x="160" y="40" width="40" height="40" as="geometry" />
        </mxCell>
        <mxCell id="qZHov3XKpASI76Yh6Nmb-23" value="s" style="text;html=1;align=center;verticalAlign=middle;whiteSpace=wrap;rounded=0;fontSize=10;" parent="qZHov3XKpASI76Yh6Nmb-1" vertex="1">
          <mxGeometry x="40" y="80" width="160" height="20" as="geometry" />
        </mxCell>
        <mxCell id="qZHov3XKpASI76Yh6Nmb-24" style="edgeStyle=orthogonalEdgeStyle;rounded=0;orthogonalLoop=1;jettySize=auto;html=1;exitX=1;exitY=0.5;exitDx=0;exitDy=0;entryX=0;entryY=0.5;entryDx=0;entryDy=0;fillColor=#dae8fc;strokeColor=#6c8ebf;" parent="qZHov3XKpASI76Yh6Nmb-1" source="qZHov3XKpASI76Yh6Nmb-25" target="qZHov3XKpASI76Yh6Nmb-4" edge="1">
          <mxGeometry relative="1" as="geometry">
            <Array as="points">
              <mxPoint x="220" y="140" />
              <mxPoint x="220" y="70" />
            </Array>
          </mxGeometry>
        </mxCell>
        <mxCell id="qZHov3XKpASI76Yh6Nmb-25" value="V" style="text;html=1;align=center;verticalAlign=middle;whiteSpace=wrap;rounded=0;fillColor=#dae8fc;strokeColor=#6c8ebf;fontSize=14;fontColor=#333333;" parent="qZHov3XKpASI76Yh6Nmb-1" vertex="1">
          <mxGeometry x="40" y="120" width="40" height="40" as="geometry" />
        </mxCell>
        <mxCell id="qZHov3XKpASI76Yh6Nmb-26" value="c" style="text;html=1;align=center;verticalAlign=middle;whiteSpace=wrap;rounded=0;fontSize=10;" parent="qZHov3XKpASI76Yh6Nmb-1" vertex="1">
          <mxGeometry x="40" y="160" width="40" height="20" as="geometry" />
        </mxCell>
        <mxCell id="qZHov3XKpASI76Yh6Nmb-27" value="55" style="text;html=1;align=center;verticalAlign=middle;whiteSpace=wrap;rounded=0;fillColor=#d5e8d4;strokeColor=#82b366;fontSize=14;fontColor=#333333;" parent="qZHov3XKpASI76Yh6Nmb-1" vertex="1">
          <mxGeometry x="40" y="200" width="40" height="40" as="geometry" />
        </mxCell>
        <mxCell id="qZHov3XKpASI76Yh6Nmb-28" value="return" style="text;html=1;align=center;verticalAlign=middle;whiteSpace=wrap;rounded=0;fontSize=10;" parent="qZHov3XKpASI76Yh6Nmb-1" vertex="1">
          <mxGeometry x="40" y="240" width="40" height="20" as="geometry" />
        </mxCell>
      </root>
    </mxGraphModel>
  </diagram>
  <diagram name="3" id="X0kk4fu61f1bWd57neVq">
    <mxGraphModel dx="1185" dy="703" grid="1" gridSize="10" guides="1" tooltips="1" connect="1" arrows="1" fold="1" page="1" pageScale="1" pageWidth="340" pageHeight="300" math="0" shadow="0">
      <root>
        <mxCell id="L6uOgy8KeVUyfXRG4Omc-0" />
        <mxCell id="L6uOgy8KeVUyfXRG4Omc-1" parent="L6uOgy8KeVUyfXRG4Omc-0" />
        <mxCell id="L6uOgy8KeVUyfXRG4Omc-2" value="I" style="text;html=1;align=center;verticalAlign=middle;whiteSpace=wrap;rounded=0;fillColor=#dae8fc;strokeColor=#6c8ebf;fontSize=14;fontColor=#333333;" parent="L6uOgy8KeVUyfXRG4Omc-1" vertex="1">
          <mxGeometry x="200" y="40" width="40" height="20" as="geometry" />
        </mxCell>
        <mxCell id="L6uOgy8KeVUyfXRG4Omc-3" value="romans" style="text;html=1;align=center;verticalAlign=middle;whiteSpace=wrap;rounded=0;fontSize=10;" parent="L6uOgy8KeVUyfXRG4Omc-1" vertex="1">
          <mxGeometry x="200" y="180" width="80" height="20" as="geometry" />
        </mxCell>
        <mxCell id="L6uOgy8KeVUyfXRG4Omc-4" value="V" style="text;html=1;align=center;verticalAlign=middle;whiteSpace=wrap;rounded=0;fillColor=#f5f5f5;strokeColor=#666666;fontSize=14;fontColor=#333333;" parent="L6uOgy8KeVUyfXRG4Omc-1" vertex="1">
          <mxGeometry x="200" y="60" width="40" height="20" as="geometry" />
        </mxCell>
        <mxCell id="L6uOgy8KeVUyfXRG4Omc-5" value="X" style="text;html=1;align=center;verticalAlign=middle;whiteSpace=wrap;rounded=0;fillColor=#f5f5f5;strokeColor=#666666;fontSize=14;fontColor=#333333;" parent="L6uOgy8KeVUyfXRG4Omc-1" vertex="1">
          <mxGeometry x="200" y="80" width="40" height="20" as="geometry" />
        </mxCell>
        <mxCell id="L6uOgy8KeVUyfXRG4Omc-6" value="L" style="text;html=1;align=center;verticalAlign=middle;whiteSpace=wrap;rounded=0;fillColor=#f5f5f5;strokeColor=#666666;fontSize=14;fontColor=#333333;" parent="L6uOgy8KeVUyfXRG4Omc-1" vertex="1">
          <mxGeometry x="200" y="100" width="40" height="20" as="geometry" />
        </mxCell>
        <mxCell id="L6uOgy8KeVUyfXRG4Omc-7" value="C" style="text;html=1;align=center;verticalAlign=middle;whiteSpace=wrap;rounded=0;fillColor=#f5f5f5;strokeColor=#666666;fontSize=14;fontColor=#333333;" parent="L6uOgy8KeVUyfXRG4Omc-1" vertex="1">
          <mxGeometry x="200" y="120" width="40" height="20" as="geometry" />
        </mxCell>
        <mxCell id="L6uOgy8KeVUyfXRG4Omc-8" value="D" style="text;html=1;align=center;verticalAlign=middle;whiteSpace=wrap;rounded=0;fillColor=#f5f5f5;strokeColor=#666666;fontSize=14;fontColor=#333333;" parent="L6uOgy8KeVUyfXRG4Omc-1" vertex="1">
          <mxGeometry x="200" y="140" width="40" height="20" as="geometry" />
        </mxCell>
        <mxCell id="L6uOgy8KeVUyfXRG4Omc-9" value="M" style="text;html=1;align=center;verticalAlign=middle;whiteSpace=wrap;rounded=0;fillColor=#f5f5f5;strokeColor=#666666;fontSize=14;fontColor=#333333;" parent="L6uOgy8KeVUyfXRG4Omc-1" vertex="1">
          <mxGeometry x="200" y="160" width="40" height="20" as="geometry" />
        </mxCell>
        <mxCell id="L6uOgy8KeVUyfXRG4Omc-10" value="1" style="text;html=1;align=center;verticalAlign=middle;whiteSpace=wrap;rounded=0;fillColor=#d5e8d4;strokeColor=#82b366;fontSize=14;fontColor=#333333;" parent="L6uOgy8KeVUyfXRG4Omc-1" vertex="1">
          <mxGeometry x="240" y="40" width="40" height="20" as="geometry" />
        </mxCell>
        <mxCell id="L6uOgy8KeVUyfXRG4Omc-11" value="5" style="text;html=1;align=center;verticalAlign=middle;whiteSpace=wrap;rounded=0;fillColor=#f5f5f5;strokeColor=#666666;fontSize=14;fontColor=#333333;" parent="L6uOgy8KeVUyfXRG4Omc-1" vertex="1">
          <mxGeometry x="240" y="60" width="40" height="20" as="geometry" />
        </mxCell>
        <mxCell id="L6uOgy8KeVUyfXRG4Omc-12" value="10" style="text;html=1;align=center;verticalAlign=middle;whiteSpace=wrap;rounded=0;fillColor=#f5f5f5;strokeColor=#666666;fontSize=14;fontColor=#333333;" parent="L6uOgy8KeVUyfXRG4Omc-1" vertex="1">
          <mxGeometry x="240" y="80" width="40" height="20" as="geometry" />
        </mxCell>
        <mxCell id="L6uOgy8KeVUyfXRG4Omc-13" value="55 + 1" style="edgeStyle=orthogonalEdgeStyle;rounded=0;orthogonalLoop=1;jettySize=auto;html=1;exitX=1;exitY=0.5;exitDx=0;exitDy=0;entryX=1;entryY=0.5;entryDx=0;entryDy=0;fillColor=#d5e8d4;strokeColor=#82b366;" parent="L6uOgy8KeVUyfXRG4Omc-1" source="L6uOgy8KeVUyfXRG4Omc-10" target="L6uOgy8KeVUyfXRG4Omc-27" edge="1">
          <mxGeometry relative="1" as="geometry" />
        </mxCell>
        <mxCell id="L6uOgy8KeVUyfXRG4Omc-14" value="50" style="text;html=1;align=center;verticalAlign=middle;whiteSpace=wrap;rounded=0;fillColor=#f5f5f5;strokeColor=#666666;fontSize=14;fontColor=#333333;" parent="L6uOgy8KeVUyfXRG4Omc-1" vertex="1">
          <mxGeometry x="240" y="100" width="40" height="20" as="geometry" />
        </mxCell>
        <mxCell id="L6uOgy8KeVUyfXRG4Omc-15" value="100" style="text;html=1;align=center;verticalAlign=middle;whiteSpace=wrap;rounded=0;fillColor=#f5f5f5;strokeColor=#666666;fontSize=14;fontColor=#333333;" parent="L6uOgy8KeVUyfXRG4Omc-1" vertex="1">
          <mxGeometry x="240" y="120" width="40" height="20" as="geometry" />
        </mxCell>
        <mxCell id="L6uOgy8KeVUyfXRG4Omc-16" value="500" style="text;html=1;align=center;verticalAlign=middle;whiteSpace=wrap;rounded=0;fillColor=#f5f5f5;strokeColor=#666666;fontSize=14;fontColor=#333333;" parent="L6uOgy8KeVUyfXRG4Omc-1" vertex="1">
          <mxGeometry x="240" y="140" width="40" height="20" as="geometry" />
        </mxCell>
        <mxCell id="L6uOgy8KeVUyfXRG4Omc-17" value="1000" style="text;html=1;align=center;verticalAlign=middle;whiteSpace=wrap;rounded=0;fillColor=#f5f5f5;strokeColor=#666666;fontSize=14;fontColor=#333333;" parent="L6uOgy8KeVUyfXRG4Omc-1" vertex="1">
          <mxGeometry x="240" y="160" width="40" height="20" as="geometry" />
        </mxCell>
        <mxCell id="L6uOgy8KeVUyfXRG4Omc-18" style="edgeStyle=orthogonalEdgeStyle;rounded=0;orthogonalLoop=1;jettySize=auto;html=1;exitX=0.5;exitY=1;exitDx=0;exitDy=0;entryX=0.5;entryY=0;entryDx=0;entryDy=0;fillColor=#f5f5f5;strokeColor=#666666;" parent="L6uOgy8KeVUyfXRG4Omc-1" source="L6uOgy8KeVUyfXRG4Omc-19" target="L6uOgy8KeVUyfXRG4Omc-25" edge="1">
          <mxGeometry relative="1" as="geometry" />
        </mxCell>
        <mxCell id="L6uOgy8KeVUyfXRG4Omc-19" value="I" style="text;html=1;align=center;verticalAlign=middle;whiteSpace=wrap;rounded=0;fillColor=#f5f5f5;strokeColor=#666666;fontSize=14;fontColor=#333333;" parent="L6uOgy8KeVUyfXRG4Omc-1" vertex="1">
          <mxGeometry x="40" y="40" width="40" height="40" as="geometry" />
        </mxCell>
        <mxCell id="L6uOgy8KeVUyfXRG4Omc-20" value="I" style="text;html=1;align=center;verticalAlign=middle;whiteSpace=wrap;rounded=0;fillColor=#f5f5f5;strokeColor=#666666;fontSize=14;fontColor=#333333;" parent="L6uOgy8KeVUyfXRG4Omc-1" vertex="1">
          <mxGeometry x="80" y="40" width="40" height="40" as="geometry" />
        </mxCell>
        <mxCell id="L6uOgy8KeVUyfXRG4Omc-21" value="I" style="text;html=1;align=center;verticalAlign=middle;whiteSpace=wrap;rounded=0;fillColor=#f5f5f5;strokeColor=#666666;fontSize=14;fontColor=#333333;" parent="L6uOgy8KeVUyfXRG4Omc-1" vertex="1">
          <mxGeometry x="120" y="40" width="40" height="40" as="geometry" />
        </mxCell>
        <mxCell id="L6uOgy8KeVUyfXRG4Omc-23" value="s" style="text;html=1;align=center;verticalAlign=middle;whiteSpace=wrap;rounded=0;fontSize=10;" parent="L6uOgy8KeVUyfXRG4Omc-1" vertex="1">
          <mxGeometry x="40" y="80" width="120" height="20" as="geometry" />
        </mxCell>
        <mxCell id="L6uOgy8KeVUyfXRG4Omc-24" style="edgeStyle=orthogonalEdgeStyle;rounded=0;orthogonalLoop=1;jettySize=auto;html=1;exitX=1;exitY=0.5;exitDx=0;exitDy=0;entryX=0;entryY=0.5;entryDx=0;entryDy=0;fillColor=#dae8fc;strokeColor=#6c8ebf;" parent="L6uOgy8KeVUyfXRG4Omc-1" source="L6uOgy8KeVUyfXRG4Omc-25" target="L6uOgy8KeVUyfXRG4Omc-2" edge="1">
          <mxGeometry relative="1" as="geometry">
            <Array as="points">
              <mxPoint x="180" y="140" />
              <mxPoint x="180" y="50" />
            </Array>
          </mxGeometry>
        </mxCell>
        <mxCell id="L6uOgy8KeVUyfXRG4Omc-25" value="I" style="text;html=1;align=center;verticalAlign=middle;whiteSpace=wrap;rounded=0;fillColor=#dae8fc;strokeColor=#6c8ebf;fontSize=14;fontColor=#333333;" parent="L6uOgy8KeVUyfXRG4Omc-1" vertex="1">
          <mxGeometry x="40" y="120" width="40" height="40" as="geometry" />
        </mxCell>
        <mxCell id="L6uOgy8KeVUyfXRG4Omc-26" value="c" style="text;html=1;align=center;verticalAlign=middle;whiteSpace=wrap;rounded=0;fontSize=10;" parent="L6uOgy8KeVUyfXRG4Omc-1" vertex="1">
          <mxGeometry x="40" y="160" width="40" height="20" as="geometry" />
        </mxCell>
        <mxCell id="L6uOgy8KeVUyfXRG4Omc-27" value="56" style="text;html=1;align=center;verticalAlign=middle;whiteSpace=wrap;rounded=0;fillColor=#d5e8d4;strokeColor=#82b366;fontSize=14;fontColor=#333333;" parent="L6uOgy8KeVUyfXRG4Omc-1" vertex="1">
          <mxGeometry x="40" y="200" width="40" height="40" as="geometry" />
        </mxCell>
        <mxCell id="L6uOgy8KeVUyfXRG4Omc-28" value="return" style="text;html=1;align=center;verticalAlign=middle;whiteSpace=wrap;rounded=0;fontSize=10;" parent="L6uOgy8KeVUyfXRG4Omc-1" vertex="1">
          <mxGeometry x="40" y="240" width="40" height="20" as="geometry" />
        </mxCell>
      </root>
    </mxGraphModel>
  </diagram>
  <diagram name="4" id="WfxbEHkt_7vaa5IgpXXp">
    <mxGraphModel dx="1185" dy="703" grid="1" gridSize="10" guides="1" tooltips="1" connect="1" arrows="1" fold="1" page="1" pageScale="1" pageWidth="260" pageHeight="300" math="0" shadow="0">
      <root>
        <mxCell id="TLCNbF_ztncg5gIEAMKH-0" />
        <mxCell id="TLCNbF_ztncg5gIEAMKH-1" parent="TLCNbF_ztncg5gIEAMKH-0" />
        <mxCell id="TLCNbF_ztncg5gIEAMKH-2" value="I" style="text;html=1;align=center;verticalAlign=middle;whiteSpace=wrap;rounded=0;fillColor=#dae8fc;strokeColor=#6c8ebf;fontSize=14;fontColor=#333333;" parent="TLCNbF_ztncg5gIEAMKH-1" vertex="1">
          <mxGeometry x="120" y="40" width="40" height="20" as="geometry" />
        </mxCell>
        <mxCell id="TLCNbF_ztncg5gIEAMKH-3" value="romans" style="text;html=1;align=center;verticalAlign=middle;whiteSpace=wrap;rounded=0;fontSize=10;" parent="TLCNbF_ztncg5gIEAMKH-1" vertex="1">
          <mxGeometry x="120" y="180" width="80" height="20" as="geometry" />
        </mxCell>
        <mxCell id="TLCNbF_ztncg5gIEAMKH-4" value="V" style="text;html=1;align=center;verticalAlign=middle;whiteSpace=wrap;rounded=0;fillColor=#f5f5f5;strokeColor=#666666;fontSize=14;fontColor=#333333;" parent="TLCNbF_ztncg5gIEAMKH-1" vertex="1">
          <mxGeometry x="120" y="60" width="40" height="20" as="geometry" />
        </mxCell>
        <mxCell id="TLCNbF_ztncg5gIEAMKH-5" value="X" style="text;html=1;align=center;verticalAlign=middle;whiteSpace=wrap;rounded=0;fillColor=#f5f5f5;strokeColor=#666666;fontSize=14;fontColor=#333333;" parent="TLCNbF_ztncg5gIEAMKH-1" vertex="1">
          <mxGeometry x="120" y="80" width="40" height="20" as="geometry" />
        </mxCell>
        <mxCell id="TLCNbF_ztncg5gIEAMKH-6" value="L" style="text;html=1;align=center;verticalAlign=middle;whiteSpace=wrap;rounded=0;fillColor=#f5f5f5;strokeColor=#666666;fontSize=14;fontColor=#333333;" parent="TLCNbF_ztncg5gIEAMKH-1" vertex="1">
          <mxGeometry x="120" y="100" width="40" height="20" as="geometry" />
        </mxCell>
        <mxCell id="TLCNbF_ztncg5gIEAMKH-7" value="C" style="text;html=1;align=center;verticalAlign=middle;whiteSpace=wrap;rounded=0;fillColor=#f5f5f5;strokeColor=#666666;fontSize=14;fontColor=#333333;" parent="TLCNbF_ztncg5gIEAMKH-1" vertex="1">
          <mxGeometry x="120" y="120" width="40" height="20" as="geometry" />
        </mxCell>
        <mxCell id="TLCNbF_ztncg5gIEAMKH-8" value="D" style="text;html=1;align=center;verticalAlign=middle;whiteSpace=wrap;rounded=0;fillColor=#f5f5f5;strokeColor=#666666;fontSize=14;fontColor=#333333;" parent="TLCNbF_ztncg5gIEAMKH-1" vertex="1">
          <mxGeometry x="120" y="140" width="40" height="20" as="geometry" />
        </mxCell>
        <mxCell id="TLCNbF_ztncg5gIEAMKH-9" value="M" style="text;html=1;align=center;verticalAlign=middle;whiteSpace=wrap;rounded=0;fillColor=#f5f5f5;strokeColor=#666666;fontSize=14;fontColor=#333333;" parent="TLCNbF_ztncg5gIEAMKH-1" vertex="1">
          <mxGeometry x="120" y="160" width="40" height="20" as="geometry" />
        </mxCell>
        <mxCell id="TLCNbF_ztncg5gIEAMKH-10" value="1" style="text;html=1;align=center;verticalAlign=middle;whiteSpace=wrap;rounded=0;fillColor=#d5e8d4;strokeColor=#82b366;fontSize=14;fontColor=#333333;" parent="TLCNbF_ztncg5gIEAMKH-1" vertex="1">
          <mxGeometry x="160" y="40" width="40" height="20" as="geometry" />
        </mxCell>
        <mxCell id="TLCNbF_ztncg5gIEAMKH-11" value="5" style="text;html=1;align=center;verticalAlign=middle;whiteSpace=wrap;rounded=0;fillColor=#f5f5f5;strokeColor=#666666;fontSize=14;fontColor=#333333;" parent="TLCNbF_ztncg5gIEAMKH-1" vertex="1">
          <mxGeometry x="160" y="60" width="40" height="20" as="geometry" />
        </mxCell>
        <mxCell id="TLCNbF_ztncg5gIEAMKH-12" value="10" style="text;html=1;align=center;verticalAlign=middle;whiteSpace=wrap;rounded=0;fillColor=#f5f5f5;strokeColor=#666666;fontSize=14;fontColor=#333333;" parent="TLCNbF_ztncg5gIEAMKH-1" vertex="1">
          <mxGeometry x="160" y="80" width="40" height="20" as="geometry" />
        </mxCell>
        <mxCell id="TLCNbF_ztncg5gIEAMKH-13" value="57 + 1" style="edgeStyle=orthogonalEdgeStyle;rounded=0;orthogonalLoop=1;jettySize=auto;html=1;exitX=1;exitY=0.5;exitDx=0;exitDy=0;entryX=1;entryY=0.5;entryDx=0;entryDy=0;fillColor=#d5e8d4;strokeColor=#82b366;" parent="TLCNbF_ztncg5gIEAMKH-1" source="TLCNbF_ztncg5gIEAMKH-10" target="TLCNbF_ztncg5gIEAMKH-26" edge="1">
          <mxGeometry relative="1" as="geometry" />
        </mxCell>
        <mxCell id="TLCNbF_ztncg5gIEAMKH-14" value="50" style="text;html=1;align=center;verticalAlign=middle;whiteSpace=wrap;rounded=0;fillColor=#f5f5f5;strokeColor=#666666;fontSize=14;fontColor=#333333;" parent="TLCNbF_ztncg5gIEAMKH-1" vertex="1">
          <mxGeometry x="160" y="100" width="40" height="20" as="geometry" />
        </mxCell>
        <mxCell id="TLCNbF_ztncg5gIEAMKH-15" value="100" style="text;html=1;align=center;verticalAlign=middle;whiteSpace=wrap;rounded=0;fillColor=#f5f5f5;strokeColor=#666666;fontSize=14;fontColor=#333333;" parent="TLCNbF_ztncg5gIEAMKH-1" vertex="1">
          <mxGeometry x="160" y="120" width="40" height="20" as="geometry" />
        </mxCell>
        <mxCell id="TLCNbF_ztncg5gIEAMKH-16" value="500" style="text;html=1;align=center;verticalAlign=middle;whiteSpace=wrap;rounded=0;fillColor=#f5f5f5;strokeColor=#666666;fontSize=14;fontColor=#333333;" parent="TLCNbF_ztncg5gIEAMKH-1" vertex="1">
          <mxGeometry x="160" y="140" width="40" height="20" as="geometry" />
        </mxCell>
        <mxCell id="TLCNbF_ztncg5gIEAMKH-17" value="1000" style="text;html=1;align=center;verticalAlign=middle;whiteSpace=wrap;rounded=0;fillColor=#f5f5f5;strokeColor=#666666;fontSize=14;fontColor=#333333;" parent="TLCNbF_ztncg5gIEAMKH-1" vertex="1">
          <mxGeometry x="160" y="160" width="40" height="20" as="geometry" />
        </mxCell>
        <mxCell id="TLCNbF_ztncg5gIEAMKH-18" style="edgeStyle=orthogonalEdgeStyle;rounded=0;orthogonalLoop=1;jettySize=auto;html=1;exitX=0.5;exitY=1;exitDx=0;exitDy=0;entryX=0.5;entryY=0;entryDx=0;entryDy=0;fillColor=#f5f5f5;strokeColor=#666666;" parent="TLCNbF_ztncg5gIEAMKH-1" source="TLCNbF_ztncg5gIEAMKH-19" target="TLCNbF_ztncg5gIEAMKH-24" edge="1">
          <mxGeometry relative="1" as="geometry" />
        </mxCell>
        <mxCell id="TLCNbF_ztncg5gIEAMKH-19" value="I" style="text;html=1;align=center;verticalAlign=middle;whiteSpace=wrap;rounded=0;fillColor=#f5f5f5;strokeColor=#666666;fontSize=14;fontColor=#333333;" parent="TLCNbF_ztncg5gIEAMKH-1" vertex="1">
          <mxGeometry x="40" y="40" width="40" height="40" as="geometry" />
        </mxCell>
        <mxCell id="TLCNbF_ztncg5gIEAMKH-22" value="s" style="text;html=1;align=center;verticalAlign=middle;whiteSpace=wrap;rounded=0;fontSize=10;" parent="TLCNbF_ztncg5gIEAMKH-1" vertex="1">
          <mxGeometry x="40" y="80" width="40" height="20" as="geometry" />
        </mxCell>
        <mxCell id="TLCNbF_ztncg5gIEAMKH-23" style="edgeStyle=orthogonalEdgeStyle;rounded=0;orthogonalLoop=1;jettySize=auto;html=1;exitX=1;exitY=0.5;exitDx=0;exitDy=0;entryX=0;entryY=0.5;entryDx=0;entryDy=0;fillColor=#dae8fc;strokeColor=#6c8ebf;" parent="TLCNbF_ztncg5gIEAMKH-1" source="TLCNbF_ztncg5gIEAMKH-24" target="TLCNbF_ztncg5gIEAMKH-2" edge="1">
          <mxGeometry relative="1" as="geometry">
            <Array as="points">
              <mxPoint x="100" y="140" />
              <mxPoint x="100" y="50" />
            </Array>
          </mxGeometry>
        </mxCell>
        <mxCell id="TLCNbF_ztncg5gIEAMKH-24" value="I" style="text;html=1;align=center;verticalAlign=middle;whiteSpace=wrap;rounded=0;fillColor=#dae8fc;strokeColor=#6c8ebf;fontSize=14;fontColor=#333333;" parent="TLCNbF_ztncg5gIEAMKH-1" vertex="1">
          <mxGeometry x="40" y="120" width="40" height="40" as="geometry" />
        </mxCell>
        <mxCell id="TLCNbF_ztncg5gIEAMKH-25" value="c" style="text;html=1;align=center;verticalAlign=middle;whiteSpace=wrap;rounded=0;fontSize=10;" parent="TLCNbF_ztncg5gIEAMKH-1" vertex="1">
          <mxGeometry x="40" y="160" width="40" height="20" as="geometry" />
        </mxCell>
        <mxCell id="TLCNbF_ztncg5gIEAMKH-26" value="58" style="text;html=1;align=center;verticalAlign=middle;whiteSpace=wrap;rounded=0;fillColor=#d5e8d4;strokeColor=#82b366;fontSize=14;fontColor=#333333;" parent="TLCNbF_ztncg5gIEAMKH-1" vertex="1">
          <mxGeometry x="40" y="200" width="40" height="40" as="geometry" />
        </mxCell>
        <mxCell id="TLCNbF_ztncg5gIEAMKH-27" value="return" style="text;html=1;align=center;verticalAlign=middle;whiteSpace=wrap;rounded=0;fontSize=10;" parent="TLCNbF_ztncg5gIEAMKH-1" vertex="1">
          <mxGeometry x="40" y="240" width="40" height="20" as="geometry" />
        </mxCell>
      </root>
    </mxGraphModel>
  </diagram>
</mxfile>
